===========Visit DUSTorrents.com for more Exclusives==============

Visit DusTorrents.com for more exclusives....

DusTorrents.com a Complete FreeLeech Site!! Registrations are absolutely FREE!!

Register by visiting..... www.dustorrents.com

========================================================


[CENTER][B][FONT=Comic Sans MS][SIZE=5]Bluffmaster (2005) 1/3 DvD RiP XviD 5.1 AC3 [Team DUS][/SIZE][/FONT][/B]

[IMG]http://i897.photobucket.com/albums/ac175/drmasoom/DUS%20Banners/priya-ban.jpg[/IMG]

[IMG]http://www.join4movies.com/wp-content/uploads/2011/08/Bluffmaster-2005.jpg[/IMG][/CENTER]

[CODE]
[B][FONT=Comic Sans MS][COLOR=#FF0000]Source                           : DvD 9 @ DUS WareHouse!!!!
Ripper                           : I Proud To Be An Indian [Team DUS][/COLOR][/FONT][/B]
General
Complete name                    : D:\Ripping\Bluffmaster (2005) DvD RiP XviD 5.1 AC3 [Team DUS]\Bluffmaster (2005) DvD RiP XviD 5.1 AC3 [Team DUS].avi
Format                           : AVI
Format/Info                      : Audio Video Interleave
Format profile                   : OpenDML
Format settings                  : rec
File size                        : 1.45 GiB
Duration                         : 2h 15mn
Overall bit rate                 : 1 539 Kbps
Writing application              : AVI-Mux GUI 1.17.8.3, Feb 16 201019:42:50

Video
ID                               : 0
Format                           : MPEG-4 Visual
Format profile                   : Advanced Simple@L5
Format settings, BVOP            : 2
Format settings, QPel            : Yes
Format settings, GMC             : No warppoints
Format settings, Matrix          : Default (H.263)
Codec ID                         : XVID
Codec ID/Hint                    : XviD
Duration                         : 2h 15mn
Bit rate                         : 1 085 Kbps
Width                            : 720 pixels
Height                           : 304 pixels
Display aspect ratio             : 2.35:1
Frame rate                       : 23.976 fps
Color space                      : YUV
Chroma subsampling               : 4:2:0
Bit depth                        : 8 bits
Scan type                        : Progressive
Compression mode                 : Lossy
Bits/(Pixel*Frame)               : 0.207
Stream size                      : 1.02 GiB (71%)
Writing library                  : XviD 1.2.1 (UTC 2008-12-04)

Audio
ID                               : 1
Format                           : AC-3
Format/Info                      : Audio Coding 3
Mode extension                   : CM (complete main)
Codec ID                         : 2000
Duration                         : 2h 15mn
Bit rate mode                    : Constant
Bit rate                         : 448 Kbps
Channel(s)                       : 6 channels
Channel positions                : Front: L C R, Side: L R, LFE
Sampling rate                    : 48.0 KHz
Bit depth                        : 16 bits
Compression mode                 : Lossy
Stream size                      : 433 MiB (29%)
Alignment                        : Aligned on interleaves
Interleave, duration             : 64 ms (1.53 video frames)
Interleave, preload duration     : 2688 ms
Title                            : VTS_02_1 T80 3_2ch 448Kbps DELAY 2686ms[/CODE]

[CENTER][IMG]http://img21.imageshack.us/img21/3431/5vh6rom324kkccccthg.gif[/IMG]

[IMG]http://img713.imageshack.us/img713/5397/vlcsnap2011082818h46m45.png[/IMG]

[IMG]http://img834.imageshack.us/img834/6640/vlcsnap2011082818h47m31.png[/IMG]

[IMG]http://img196.imageshack.us/img196/6561/vlcsnap2011082818h47m37.png[/IMG]

[IMG]http://img192.imageshack.us/img192/2196/vlcsnap2011082818h48m09.png[/IMG]

[IMG]http://img709.imageshack.us/img709/6083/vlcsnap2011082818h48m36.png[/IMG]

[IMG]http://img690.imageshack.us/img690/343/vlcsnap2011082818h49m11.png[/IMG]

[IMG]http://img696.imageshack.us/img696/9314/vlcsnap2011082818h50m00.png[/IMG]

[IMG]http://img233.imageshack.us/img233/1162/vlcsnap2011082818h50m31.png[/IMG]

[IMG]http://img835.imageshack.us/img835/9563/vlcsnap2011082818h50m35.png[/IMG]

[IMG]http://img69.imageshack.us/img69/739/vlcsnap2011082818h51m12.png[/IMG]

:dwarf::dwarf::dwarf::dwarf::dwarf::dwarf:[/CENTER]